<svg width="16" height="12" viewBox="0 0 16 12" fill="none" xmlns="http://www.w3.org/2000/svg">
<g clip-path="url(#clip0_59_26)">
<path d="M12.5764 0L7.89404 11.1294H10.4705L15.1529 0H12.5764Z" fill="#565656"/>
<path d="M15.153 0C12.9412 0 10.7412 0 8.52943 0L7.49414 2.41176C9.70591 2.41176 11.9294 2.41176 14.1412 2.41176C14.4824 1.6 14.8236 0.8 15.153 0Z" fill="#565656"/>
<path d="M14.9059 8.54114C12.9764 8.54114 11.047 8.54114 9.11762 8.54114C9.10585 9.39996 9.08232 10.2705 9.07056 11.1294C11.3764 11.1294 13.6823 11.1294 16 11.1294L14.9059 8.54114Z" fill="#565656"/>
<path d="M4.68235 0.0117188L0 11.1411H2.58824L7.27059 0.0117188H4.68235Z" fill="#565656"/>
<path d="M9.54125 3.90588H6.95302L5.91772 6.31765H8.56478L9.54125 3.90588Z" fill="#565656"/>
</g>
<defs>
<clipPath id="clip0_59_26">
<rect width="16" height="11.1412" fill="white"/>
</clipPath>
</defs>
</svg>
